<svg width="507" height="242" viewBox="0 0 507 242" fill="none" xmlns="http://www.w3.org/2000/svg">
<path fill-rule="evenodd" clip-rule="evenodd" d="M472.178 241.5C493.178 240.5 506.178 229.5 506.178 206C504.928 162.015 495.678 135 473.678 97.5C426.609 32.9359 391.178 19.5 344.178 5C326.211 1.33332 317.109 0.0509113 303.678 0H199.178C152.891 4.79739 137.904 11.6273 111.678 24C85.2338 38.8582 71.7344 49.6374 50.1778 73.5C34.1878 92.9299 26.9825 104.655 17.1778 127C8.66508 146.518 5.17448 159.195 1.67779 185.5C0.800983 193.137 0.466732 198.471 0.177789 210C-0.169883 213.599 -0.0912973 215.296 1.17779 217C8.13897 236.635 16.8738 240.657 37.1778 241L472.178 241.5ZM17.1778 210C17.6778 218.5 24.1778 225 32.6778 224H472.178C481.678 226 489.178 218.5 489.178 208C485.495 159.507 477.835 137.322 457.178 104C437.961 77.2572 425.639 64.7437 400.178 48C366.857 27.5515 346.575 21.443 308.178 18H195.178C143.378 23.9747 115.147 34.6117 67.6778 79.5C32.6968 122.98 20.6096 151.047 17.1778 210Z" fill="#EDA922"/>
<path d="M187.178 118C184.37 126.263 189.178 133.5 198.178 130.5L220.678 107.5C221.678 98 216.562 95.6547 208.678 97L187.178 118Z" fill="#EDA922"/>
<path d="M137.178 53.5C135.27 46.0029 140.678 40 147.678 42L170.178 63.5C175.178 72 165.909 79.3473 159.178 76L137.178 53.5Z" fill="#EDA922"/>
<path d="M99.1778 130.5C90.6778 133 84.6411 127.886 88.1778 119L108.178 98C117.59 93.0136 124.178 100 121.178 109L99.1778 130.5Z" fill="#EDA922"/>
<path d="M257.678 75C266.178 80 272.678 72.5 269.678 64L249.178 43C240.678 39.5 234.444 43.4766 236.178 54L257.678 75Z" fill="#EDA922"/>
<path d="M357.178 76C365.951 78.0665 372.178 73 369.178 64L347.178 42C339.442 39.9195 333.678 45 335.178 54L357.178 76Z" fill="#EDA922"/>
<path d="M286.178 119C283.811 127.303 289.178 133.5 297.178 131L320.178 108C322.178 99 314.832 94.239 306.678 98L286.178 119Z" fill="#EDA922"/>
<path d="M396.178 130.5C389.678 133.5 383.15 129.217 385.178 119L407.178 97C415.678 93.5 422.185 101.814 418.178 109L396.178 130.5Z" fill="#EDA922"/>
</svg>
