<svg width="513" height="65" viewBox="0 0 513 65" fill="none" xmlns="http://www.w3.org/2000/svg">
<path d="M0 0C21.4402 1.89763 33.5 6.5 50 24C72.183 49.0382 98.5 50 121.5 24C140.285 6.45817 151.114 0.0447408 171.5 1C193.607 1.1594 203 7.5 217.5 21C243.543 50.3356 268 51.5 295.5 21C312.894 5.30609 322.973 -0.117977 342 1C363.107 0.87823 370.836 6.14653 383.5 17C415.958 51.8982 438.5 53 470 17C485.82 5.04469 494.959 0.255647 512.5 0.5V22C495.76 22.1627 487.643 28.3816 474 43.5C456.023 60.2364 445.404 63.4837 426 64C402.824 61.6675 391.735 56.1532 375.5 38.5C354.765 16.8009 331 15 308 38.5C295.066 53.1941 276 66 255.5 64C232.383 63.3975 220.12 55.433 199 33C183.607 18.1225 159.5 17 143.5 33C117.241 59.3671 104.881 64.8147 85.5 64C59.8388 63.4874 47 52 25 30.5C16.2932 23.773 10.8266 21.8923 0 22V0Z" fill="#EDA922"/>
</svg>
