<svg width="710" height="709" viewBox="0 0 710 709" fill="none" xmlns="http://www.w3.org/2000/svg">
<path fill-rule="evenodd" clip-rule="evenodd" d="M360.277 708.5C810.276 692.5 842.277 36.5009 360.277 0C-149.532 39.5684 -89.723 724.5 360.277 708.5ZM360.277 672C822.941 619.578 725.484 30.3871 352.777 36.5009C6.88937 10.1224 -135.146 631.127 360.277 672Z" fill="#262626"/>
<path d="M263.275 82.5009C332.98 62.9666 372.063 61.9871 441.777 83.0009L437.277 125.001C433.829 154.908 425.86 162.203 405.777 166.001L297.777 167.001C280.245 164.519 275.572 155.455 268.775 137.001L263.275 82.5009Z" fill="#262626"/>
<path d="M352.777 427.502C452.777 427.502 446.777 281.501 352.777 281.501C258.777 281.501 252.777 427.502 352.777 427.502Z" fill="#262626"/>
<path d="M66.2759 346.001C71.9842 269.787 86.3995 233.627 127.276 178.001L179.275 206.001C197.309 221.263 200.196 230.592 193.775 248.501L156.276 340.501C147.327 358.62 137.963 363.763 108.276 358.001L66.2759 346.001Z" fill="#262626"/>
<path d="M258.275 625C189.321 597.046 157.191 574.308 116.276 516.001L163.776 470.501C177.828 462.375 185.482 462.441 198.775 470.001L277.275 533.501C293.49 546.773 293.915 556.421 289.275 575L258.275 625Z" fill="#262626"/>
<path d="M449.777 623.5C515.226 595.802 546.975 573.011 590.777 513.501L544.777 471.001C527.441 463.577 518.461 463.029 504.777 473.501L429.277 536.501C416.943 548.205 414.575 557.804 419.277 576.5L449.777 623.5Z" fill="#262626"/>
<path d="M638.277 356.501C635.35 278.425 621.268 242.786 584.277 187.001C572.717 187.37 553.309 199.767 522.277 218.501C506.991 231.717 503.397 240.161 508.277 257.501L550.777 356.501C564.706 373.226 574.475 375.015 594.277 369.001L638.277 356.501Z" fill="#262626"/>
</svg>
