<svg width="18" height="18" viewBox="0 0 18 18" fill="none" xmlns="http://www.w3.org/2000/svg">
<path fill-rule="evenodd" clip-rule="evenodd" d="M9.0551 13.4685C2.89764 13.4685 3.37662 4.34113 9.0551 4.53146C14.6609 4.48752 15.1941 13.1935 9.0551 13.4685ZM9.0551 12.1468C12.9004 12.0083 13.3567 6.19796 9.0551 5.8846C5.08856 5.89237 4.72413 11.9296 9.0551 12.1468Z" fill="#FEFEFE"/>
<path d="M14.0157 5.03497C15.3603 5.01465 15.3013 3.0052 14.0157 2.98951C12.6614 2.95804 12.5827 5.03497 14.0157 5.03497Z" fill="#FEFEFE"/>
<path fill-rule="evenodd" clip-rule="evenodd" d="M4.61417 18H13.622C16.0309 17.6295 17.874 16.1434 18 13.4843V4.59441C17.8929 1.45338 15.3071 0 13.4646 0H4.51969C1.20318 0.248307 0.125984 2.81643 0 4.46853V13.7832C0.777439 17.2144 2.2907 17.5344 4.61417 18ZM1.55906 13.7832C2.01575 15.7028 3.15429 16.3143 4.61417 16.4895H13.622C15.1908 16.1754 16.3937 15.215 16.4882 13.3584V4.59441C16.3998 3.18014 15.4961 1.7465 13.4646 1.54196H4.51969C2.74615 1.78706 1.82677 2.8007 1.51181 4.46853L1.55906 13.7832Z" fill="#FEFEFE"/>
</svg>
