<svg width="18" height="15" viewBox="0 0 18 15" fill="none" xmlns="http://www.w3.org/2000/svg">
<path d="M5.16667 11.7387C3.54717 11.674 2.5 10.7249 1.83333 9.20414L3.5 9.11966C1.24697 8.18919 0.682357 7.30951 0.500001 5.31777C1.18404 5.62034 1.54612 5.72236 2.16667 5.82469C0.433887 4.06379 0.166667 2.02281 1.08333 0.755512C2.82694 2.89012 6 4.72637 8.83333 4.64188C8.11399 1.57362 11.5 -1.77907 15.1667 1.09346C15.2301 1.23626 15.3268 1.24602 15.5 1.26243C16.2814 0.934335 16.7503 0.744649 17.5 0.248599C17.3679 1.05993 16.4167 1.85384 16 2.44524C16.8271 2.26576 17.2712 2.12911 18 1.76935C17.3523 2.7923 16.9369 3.1646 16.1667 3.62805C15.9362 14.4198 5.91667 17.1459 0 13.4285C2.72328 13.3542 3.88871 13.0126 5.16667 11.7387Z" fill="#FEFEFE"/>
</svg>
