<svg width="42" height="44" viewBox="0 0 42 44" fill="none" xmlns="http://www.w3.org/2000/svg">
<path d="M14.6579 8.08364C14.6579 9.58366 17.5752 17.0923 22.1579 19.5836C26.1678 26.2119 28.738 27.4518 33.6579 27.0836C34.4106 25.5067 34.146 24.2287 32.1579 21.0836H37.1579C42.1579 20.0836 42.2181 18.0097 34.6579 14.5836C37.2592 9.19095 38.0392 6.68751 37.6579 3.58362C33.984 3.87892 31.6928 4.62543 27.1579 7.08362C24.2424 0.3356 22.7963 -0.749624 20.6579 3.58362V9.58364C20.6579 8.08363 14.6579 6.58362 14.6579 8.08364Z" fill="#8454FC"/>
<path d="M29.1578 43.5836C29.1578 35.0836 15.6578 31.5836 14.1578 26.5836L13.6578 24.5836C16.1578 19.5836 23.1578 21.5836 20.1578 29.5836C18.4419 32.1413 17.3035 33.2958 14.1578 33.5836H12.1578C7.78472 32.4183 7.63961 29.0874 9.15782 21.0836C10.137 19.3198 10.2727 18.061 10.1579 15.5836C8.65788 10.5836 4.15788 9.58364 1.15785 14.5836C0.157867 19.5836 4.15788 20.0836 6.15787 17.0836M14.6579 8.08364C14.6579 9.58366 17.5752 17.0923 22.1579 19.5836C26.1678 26.2119 28.738 27.4518 33.6579 27.0836C34.4106 25.5067 34.146 24.2287 32.1579 21.0836H37.1579C42.1579 20.0836 42.2181 18.0097 34.6579 14.5836C37.2592 9.19095 38.0392 6.68751 37.6579 3.58362C33.984 3.87892 31.6928 4.62543 27.1579 7.08362C24.2424 0.3356 22.7963 -0.749624 20.6579 3.58362V9.58364C20.6579 8.08363 14.6579 6.58362 14.6579 8.08364Z" stroke="white" stroke-width="2"/>
</svg>
