<svg width="10" height="18" viewBox="0 0 10 18" fill="none" xmlns="http://www.w3.org/2000/svg">
<path d="M2.81078 17.56C2.81544 17.8991 2.92842 17.9825 3.26527 18H6.28142C6.54353 17.9271 6.6367 17.8335 6.69459 17.56L6.6946 10.16H9.54549C9.78008 10.1293 9.84758 10.0543 9.83471 9.8V6.92C9.87729 6.60512 9.80482 6.51733 9.54549 6.48H6.6946V4.24C6.85261 3.78915 6.9918 3.61023 7.39699 3.52L9.62812 3.44C9.88515 3.39486 10.002 3.34241 9.99998 3.04V0.44C9.94711 0.103426 9.83732 0.00761369 9.50417 0H7.31436C4.42215 0.12 3.07483 1.54303 2.81078 4V6.48H0.414375C0.0925235 6.51191 -0.012728 6.59534 0.0012024 6.92V9.84C0.0691435 10.0979 0.170898 10.1201 0.373058 10.12H2.81078V17.56Z" fill="#FEFEFE"/>
</svg>
