<svg width="19" height="24" viewBox="0 0 19 24" fill="none" xmlns="http://www.w3.org/2000/svg">
<path d="M6.70413 21.4341C5.84844 24.6616 3.48268 25.1659 3.73435 21.0811L4.13704 18.9126C4.60669 17.174 5.18099 14.6567 5.94911 11.3986C4.87274 8.27965 5.94911 5.90176 7.86185 5.49832C9.90116 5.31511 10.5296 7.01121 9.72425 9.48227C9.08889 11.8311 8.5162 12.9115 8.96922 14.0714C9.8031 15.5289 11.939 16.1894 14.0027 13.6679C17.0618 8.24175 15.8148 2.47254 9.72425 2.37168C4.32039 2.39975 0.764584 8.1711 3.88536 12.2559C3.9115 12.8469 3.53302 14.1218 3.33168 14.2227C2.2523 14.161 1.51961 13.3654 0.965926 12.5585C-0.540375 9.85275 -0.343929 6.2147 1.97263 3.48114C4.67179 0.59656 6.95582 0.203208 9.42224 0.00148929C12.941 -0.0393253 15.1306 0.751854 17.2745 3.22899C19.2123 5.71149 19.6403 8.87711 17.9289 13.2141C16.8639 15.8352 14.1034 18.0553 10.8316 17.7023C9.29176 17.4065 8.70565 17.0065 7.96252 16.0381C7.64917 16.8685 7.39789 18.0479 7.00615 19.6186C6.91853 19.894 6.84737 20.3635 6.70413 21.4341Z" fill="#FEFEFE"/>
</svg>
