<svg width="19" height="24" viewBox="0 0 19 24" fill="none" xmlns="http://www.w3.org/2000/svg">
<path d="M12.5 5.00038V7.00038L14.5 7.00038V5.00038H12.5Z" fill="#9E7076"/>
<path d="M0.5 24.0004H18.5C17.7826 16.1645 17.4637 12.0338 17 5.00038H14.5V7.00038L12.5 7.00038V5.00038H6.5V7.00038H4.5V5.00038H2C1.36053 12.494 0.924551 16.6552 0 24.0004H0.5Z" fill="#9E7076"/>
<path d="M4.5 5.00038H6.5V4.50038C6 0.00038147 13 0.00038147 12.5 4.50038V5.00038H14.5V4.50038C13.8731 1.1915 11.6474 -0.0247714 9.5 0.00038134C7.35265 0.0255341 5.71531 0.898915 4.5 4.50038V5.00038Z" fill="#9E7076"/>
<path d="M4.5 7.00038H6.5V5.00038H4.5V7.00038Z" fill="#9E7076"/>
<path d="M12.5 7H14.5V5H12.5V7Z" fill="#7F6367"/>
<path d="M4.5 7H6.5V5H4.5V7Z" fill="#7F6367"/>
</svg>
