<svg width="24" height="30" viewBox="0 0 24 30" fill="none" xmlns="http://www.w3.org/2000/svg">
<path fill-rule="evenodd" clip-rule="evenodd" d="M5.00007 16C6.50007 7.49988 17.0001 6.99982 19.0001 16C17.9281 22.2318 16.1988 25.2064 12.0001 29.9999C7.45377 24.7964 5.66206 21.7681 5.00007 16ZM16.0001 18.9999H8.00007C8.41655 15.5597 9.21006 13.9769 12.0001 11.9999C15.017 14.7162 15.5058 16.2536 16.0001 18.9999Z" fill="#3A54B4"/>
<path d="M14 6.9999C15.9999 10.4998 19.6675 6.17193 18 0.999924C15.0452 0.0675393 12.0001 3.5 14 6.9999Z" fill="#3A54B4"/>
<path d="M19.0001 11.5C20 14.5 25.5 8.5 23 6.9999C20.5 5.4998 18.0001 8.5 19.0001 11.5Z" fill="#3A54B4"/>
<path d="M9.5 7.99992C11.9295 5.35985 10.6584 -0.0847206 6 0.999924C4.98035 7.6231 6.37881 8.12548 9.5 7.99992Z" fill="#3A54B4"/>
<path d="M5.00007 11.9999C5.58443 8.17114 5.08596 6.72145 0.500074 6.9999C-0.0492339 10.7472 0.883155 11.8802 5.00007 11.9999Z" fill="#3A54B4"/>
</svg>
